<?xml version="1.0" encoding="utf-8"?>
<!-- Generator: Adobe Illustrator 19.0.0, SVG Export Plug-In . SVG Version: 6.00 Build 0)  -->
<svg version="1.1" id="Calque_1" xmlns="http://www.w3.org/2000/svg" xmlns:xlink="http://www.w3.org/1999/xlink" x="0px" y="0px"
	 viewBox="0 0 595.3 595.3" style="enable-background:new 0 0 595.3 595.3;" xml:space="preserve">
<style type="text/css">
	.st0{fill:#02B875;}
	.st1{fill:#8BE900;}
	.st2{fill:#FFFFFF;}
</style>
<image style="display:none;overflow:visible;" width="1024" height="1024" xlink:href="plant.png"  transform="matrix(1 0 0 1 -188 -222.44)">
</image>
<g>
	<path class="st0" d="M323,288.2c0,0.1,0,0.2,0,0.3c-2,2.1-2.8,5.1-3.4,7.9c-1.8,8.3-4,16.5-5.4,24.9c-2.7-8.6-5.4-17.3-8-25.9
		c-1.6-5.2-3.3-10.5-6.3-15c-3.1-4.5-7.9-9-13.3-9.5c7.3-38.5-4.6-80.1-31.1-108.9c-27.1-29.5-66.7-44.4-106-51.8
		c-46.2-8.8-94-8.5-140.2,0.7c16.2,6.3,29.8,17.8,41,31.1s20,28.3,28.7,43.3c7.2,12.4,15.9,24.1,23.1,36.5
		c15.8,27.4,44.7,45.3,75.2,53.8c30.4,8.5,62.1,9.9,93.7,8.6c8.4,1.6,16.1,6.7,20.9,13.7c4.4,6.4,6.3,14.2,7.7,21.8
		c2.9,16.1,3.9,32.5,2.9,48.8c-0.3,5.3-0.9,10.6-1.4,15.8c-1.7,16.2-2.9,32.6-4.6,48.8c7-0.1,14.1-0.2,21.1-0.3
		c2.6,0,4.9,0.6,6.4-1.7c1.5-2.2,1.2-7,1.4-9.6c0.9-14-2.1-27.9-3.9-41.7c-1.6-12.8-2.2-25.6-1.7-38.5c0.4-11.8,0.4-24.9,4.9-36
		c2.4-5.8,5.2-11.2,11-13.6c9.9,2.4,20.3,2.8,29.3,7.6c20.4,10.9,44.4,14.9,67.3,11.2c5.4-0.9,10.8-2.2,16-3.7
		c28.7-8.4,55-24.4,74.8-46.9c24.4-27.7,40.6-62.7,46.1-99.2c-20.2,18-46.7,28.8-73.8,30.1c-9.1,0.5-18.2-0.1-27.2-0.7
		c-18.1-1.2-36.2-5.8-54.2-2.9c-13.8,2.3-27.7,4.6-40.4,10.4c-16.6,7.6-30.2,21.1-38.9,37.2c-6.6,12.2-10.1,26-11.3,39.8
		c-0.3,3.3-0.3,6.6-0.5,9.9c-0.2,3.3-1.6,4.8-3.2,7.7c-3.6,6.4-6.3,13.3-8.2,20.4c-0.7,2.5,0.7,5.7,2.7,7.3"/>
	<path class="st1" d="M435.4,231.5c-31.6-4.2-64.8,5.9-88.7,26.8c-8.6,7.5-16.5,17.2-17.4,28.7c11.8-14.9,28.2-27.6,45.3-35.9
		C393.6,241.9,414.7,235.7,435.4,231.5z"/>
	<path class="st1" d="M281.1,269.9c-9.8-35.8-35.7-66.2-67.4-85.5c-16.4-9.9-34.3-17.2-53-21.4c19.3,10.3,37.8,21.6,55.3,34.7
		C242.2,217,265.4,241.4,281.1,269.9z"/>
</g>
<g>
	<path class="st2" d="M296.9,553.7l-12.9-0.2c-10.8-22.1-25.1-55.8-28.5-84.9c-1.9-15.9-12.9-23.1-16.8-26.2
		c-5.7-4.5-19.9-10.3-35.9-22.2c-8.3-6.2-19.6-15.7-30.4-24.4c-16.7-13.5-24.5-15.3-32.7-6.4c-2.9,3.2-7.5,13.8,5.1,25
		c2.8,2.5,9.7,8,14.4,12c4.3,3.7,11.4,10.3,20.1,19.2c7,7.1,9.9,14.6,9.9,14.6s-8.5-6.2-11.5-8.4c-9.3-6.9-21.7-15.7-31.8-25.1
		c-10.2-9.4-16.7-18-17.5-27.2c-0.4-14.2,8.3-19.3,13.3-22c0,0-31.1-54.2-33.6-57.5c-5.1-6.6-13.4-12.8-18.8-12.3
		c-0.1,0-4.4-0.9-9.2,3.7c-2.6,2.5-3.7,8.1,1.3,18.4c0,0,19.7,44.3,34.4,104.9c0,0,1.8,6.9,7.2,11.4c28.2,21.2,55.6,47.4,58.4,50.2
		c13.6,14,28.4,31.1,33.7,56.1l-11.4-0.2l2.4,39l92.2,1.2L296.9,553.7z M230.8,576.6c-2.4,2.5-6.5,2.6-9,0.2c-2.5-2.4-2.6-6.5-0.2-9
		c2.4-2.5,6.5-2.6,9-0.2C233.1,570,233.2,574.1,230.8,576.6z"/>
	<path class="st2" d="M487.3,446.1c5.4-4.5,7.2-11.4,7.2-11.4c14.8-60.6,34.4-104.9,34.4-104.9c4.9-10.3,3.9-15.9,1.2-18.4
		c-4.8-4.6-9.1-3.7-9.2-3.7c-5.4-0.5-13.8,5.7-18.8,12.3c-2.5,3.3-33.6,57.5-33.6,57.5c4.9,2.7,13.7,7.8,13.3,22
		c-0.8,9.2-7.3,17.8-17.5,27.2c-10.2,9.4-22.5,18.2-31.8,25.1c-3,2.3-11.5,8.4-11.5,8.4s3-7.5,9.9-14.6c8.7-8.9,15.8-15.6,20.1-19.2
		c4.7-4,11.6-9.6,14.4-12c12.7-11.2,8.1-21.9,5.2-25c-8.3-9-16-7.1-32.7,6.4c-10.7,8.7-22,18.2-30.4,24.4
		c-16.1,11.9-30.2,17.7-36,22.2c-3.9,3.1-15,10.3-16.8,26.2c-3.4,29.1-17.7,62.8-28.5,84.9l-12.9,0.2l-1,38.7l92.2-1.2l2.4-39
		l-11.4,0.2c5.3-25.1,20-42.1,33.7-56.1C431.6,493.5,459,467.3,487.3,446.1z M388.2,576.8c-2.6,2.5-6.6,2.4-9-0.2
		c-2.4-2.6-2.3-6.6,0.2-9c2.5-2.4,6.6-2.3,9,0.2C390.8,570.3,390.8,574.4,388.2,576.8z"/>
</g>
</svg>
