<?xml version="1.0" encoding="utf-8"?>
<!-- Generator: Adobe Illustrator 19.0.0, SVG Export Plug-In . SVG Version: 6.00 Build 0)  -->
<svg version="1.1" id="Calque_1" xmlns="http://www.w3.org/2000/svg" xmlns:xlink="http://www.w3.org/1999/xlink" x="0px" y="0px"
	 viewBox="0 0 595.3 595.3" style="enable-background:new 0 0 595.3 595.3;" xml:space="preserve">
<style type="text/css">
	.st0{fill:#02B875;}
	.st1{fill:#8BE900;}
	.st2{fill:#FFFFFF;}
</style>
<image style="display:none;overflow:visible;" width="1024" height="1024" xlink:href="plant.png"  transform="matrix(1 0 0 1 -188 -222.44)">
</image>
<g>
	<path class="st0" d="M305.5,379.4c0,0,0,0.1,0,0.1c-0.8,0.8-1,1.9-1.3,3c-0.7,3.1-1.5,6.2-2,9.3c-1-3.2-2-6.4-3-9.7
		c-0.6-1.9-1.2-3.9-2.4-5.6c-1.1-1.7-2.9-3.4-5-3.5c2.7-14.3-1.7-29.8-11.6-40.6c-10.1-11-24.8-16.5-39.4-19.3
		c-17.2-3.3-35-3.2-52.1,0.3c6,2.3,11.1,6.6,15.2,11.6c4.1,4.9,7.4,10.5,10.7,16.1c2.7,4.6,5.9,9,8.6,13.6c5.9,10.2,16.6,16.9,28,20
		c11.3,3.2,23.1,3.7,34.8,3.2c3.1,0.6,6,2.5,7.8,5.1c1.6,2.4,2.3,5.3,2.9,8.1c1.1,6,1.4,12.1,1.1,18.2c-0.1,2-0.3,3.9-0.5,5.9
		c-0.6,6-1.1,12.2-1.7,18.2c2.6,0,5.2-0.1,7.9-0.1c0.9,0,1.8,0.2,2.4-0.6c0.5-0.8,0.4-2.6,0.5-3.6c0.3-5.2-0.8-10.4-1.4-15.5
		c-0.6-4.8-0.8-9.6-0.6-14.3c0.2-4.4,0.1-9.3,1.8-13.4c0.9-2.2,1.9-4.2,4.1-5.1c3.7,0.9,7.6,1.1,10.9,2.8c7.6,4.1,16.5,5.5,25,4.2
		c2-0.3,4-0.8,6-1.4c10.7-3.1,20.5-9.1,27.8-17.5c9.1-10.3,15.1-23.3,17.2-36.9c-7.5,6.7-17.4,10.7-27.4,11.2
		c-3.4,0.2-6.8,0-10.1-0.3c-6.8-0.4-13.5-2.2-20.2-1.1c-5.1,0.8-10.3,1.7-15,3.9c-6.2,2.8-11.2,7.9-14.5,13.8
		c-2.5,4.5-3.8,9.7-4.2,14.8c-0.1,1.2-0.1,2.5-0.2,3.7c-0.1,1.2-0.6,1.8-1.2,2.9c-1.3,2.4-2.3,5-3,7.6c-0.2,0.9,0.2,2.1,1,2.7"/>
	<path class="st1" d="M347.3,358.2c-11.7-1.6-24.1,2.2-33,10c-3.2,2.8-6.1,6.4-6.5,10.7c4.4-5.6,10.5-10.3,16.9-13.4
		C331.8,362.1,339.7,359.8,347.3,358.2z"/>
	<path class="st1" d="M290,372.5c-3.7-13.3-13.3-24.6-25.1-31.8c-6.1-3.7-12.8-6.4-19.7-8c7.2,3.9,14,8.1,20.6,12.9
		C275.5,352.9,284.1,361.9,290,372.5z"/>
</g>
<g>
	<path class="st2" d="M296.9,553.7l-12.9-0.2c-10.8-22.1-25.1-55.8-28.5-84.9c-1.9-15.9-12.9-23.1-16.8-26.2
		c-5.7-4.5-19.9-10.3-35.9-22.2c-8.3-6.2-19.6-15.7-30.4-24.4c-16.7-13.5-24.5-15.3-32.7-6.4c-2.9,3.2-7.5,13.8,5.1,25
		c2.8,2.5,9.7,8,14.4,12c4.3,3.7,11.4,10.3,20.1,19.2c7,7.1,9.9,14.6,9.9,14.6s-8.5-6.2-11.5-8.4c-9.3-6.9-21.7-15.7-31.8-25.1
		c-10.2-9.4-16.7-18-17.5-27.2c-0.4-14.2,8.3-19.3,13.3-22c0,0-31.1-54.2-33.6-57.5c-5.1-6.6-13.4-12.8-18.8-12.3
		c-0.1,0-4.4-0.9-9.2,3.7c-2.6,2.5-3.7,8.1,1.3,18.4c0,0,19.7,44.3,34.4,104.9c0,0,1.8,6.9,7.2,11.4c28.2,21.2,55.6,47.4,58.4,50.2
		c13.6,14,28.4,31.1,33.7,56.1l-11.4-0.2l2.4,39l92.2,1.2L296.9,553.7z M230.8,576.6c-2.4,2.5-6.5,2.6-9,0.2c-2.5-2.4-2.6-6.5-0.2-9
		c2.4-2.5,6.5-2.6,9-0.2C233.1,570,233.2,574.1,230.8,576.6z"/>
	<path class="st2" d="M487.3,446.1c5.4-4.5,7.2-11.4,7.2-11.4c14.8-60.6,34.4-104.9,34.4-104.9c4.9-10.3,3.9-15.9,1.2-18.4
		c-4.8-4.6-9.1-3.7-9.2-3.7c-5.4-0.5-13.8,5.7-18.8,12.3c-2.5,3.3-33.6,57.5-33.6,57.5c4.9,2.7,13.7,7.8,13.3,22
		c-0.8,9.2-7.3,17.8-17.5,27.2c-10.2,9.4-22.5,18.2-31.8,25.1c-3,2.3-11.5,8.4-11.5,8.4s3-7.5,9.9-14.6c8.7-8.9,15.8-15.6,20.1-19.2
		c4.7-4,11.6-9.6,14.4-12c12.7-11.2,8.1-21.9,5.2-25c-8.3-9-16-7.1-32.7,6.4c-10.7,8.7-22,18.2-30.4,24.4
		c-16.1,11.9-30.2,17.7-36,22.2c-3.9,3.1-15,10.3-16.8,26.2c-3.4,29.1-17.7,62.8-28.5,84.9l-12.9,0.2l-1,38.7l92.2-1.2l2.4-39
		l-11.4,0.2c5.3-25.1,20-42.1,33.7-56.1C431.6,493.5,459,467.3,487.3,446.1z M388.2,576.8c-2.6,2.5-6.6,2.4-9-0.2
		c-2.4-2.6-2.3-6.6,0.2-9c2.5-2.4,6.6-2.3,9,0.2C390.8,570.3,390.8,574.4,388.2,576.8z"/>
</g>
</svg>
