<?xml version="1.0" encoding="utf-8"?>
<!-- Generator: Adobe Illustrator 19.0.0, SVG Export Plug-In . SVG Version: 6.00 Build 0)  -->
<svg version="1.1" id="Calque_1" xmlns="http://www.w3.org/2000/svg" xmlns:xlink="http://www.w3.org/1999/xlink" x="0px" y="0px"
	 viewBox="-181 -17.3 595.3 595.3" style="enable-background:new -181 -17.3 595.3 595.3;" xml:space="preserve">
<style type="text/css">
	.st0{fill:#02B875;}
	.st1{fill:#8BE900;}
	.st2{fill:#FFFFFF;}
</style>
<image style="display:none;overflow:visible;enable-background:new    ;" width="1024" height="1024" xlink:href="plant.png"  transform="matrix(1 0 0 1 -369 -239.74)">
</image>
<g>
	<path class="st0" d="M127.9,365.3v0.1c-1,1.2-1.3,2.7-1.6,4.3c-0.9,4.5-1.9,8.9-2.5,13.4c-1.3-4.6-2.5-9.2-3.8-14
		c-0.8-2.7-1.5-5.6-3-8.1c-1.4-2.4-3.7-4.9-6.3-5c3.4-20.6-2.2-42.9-14.7-58.5c-12.8-15.8-31.5-23.8-50-27.8
		c-21.8-4.8-44.4-4.6-66.1,0.4c7.6,3.3,14.1,9.5,19.3,16.7c5.2,7.1,9.4,15.1,13.6,23.2c3.4,6.6,7.5,13,10.9,19.6
		c7.5,14.7,21.1,24.3,35.5,28.8c14.3,4.6,29.3,5.3,44.1,4.6c3.9,0.9,7.6,3.6,9.9,7.3c2,3.5,2.9,7.6,3.7,11.7
		c1.4,8.6,1.8,17.4,1.4,26.2c-0.1,2.9-0.4,5.6-0.6,8.5c-0.8,8.6-1.4,17.6-2.2,26.2c3.3,0,6.6-0.1,10-0.1c1.1,0,2.3,0.3,3-0.9
		c0.6-1.2,0.5-3.7,0.6-5.2c0.4-7.5-1-15-1.8-22.3c-0.8-6.9-1-13.8-0.8-20.6c0.3-6.3,0.1-13.4,2.3-19.3c1.1-3.2,2.4-6,5.2-7.3
		c4.7,1.3,9.6,1.6,13.8,4c9.6,5.9,20.9,7.9,31.7,6c2.5-0.4,5.1-1.2,7.6-2c13.6-4.5,26-13.1,35.3-25.2c11.5-14.8,19.2-33.6,21.8-53.1
		c-9.5,9.6-22.1,15.4-34.8,16.1c-4.3,0.3-8.6,0-12.8-0.4c-8.6-0.6-17.1-3.2-25.6-1.6c-6.5,1.2-13.1,2.4-19,5.6
		c-7.9,4-14.2,11.4-18.4,19.9c-3.2,6.5-4.8,14-5.3,21.3c-0.1,1.7-0.1,3.6-0.3,5.3c-0.1,1.7-0.8,2.6-1.5,4.2
		c-1.6,3.5-2.9,7.2-3.8,10.9c-0.3,1.3,0.3,3,1.3,3.9"/>
	<path class="st1" d="M180.9,334.8c-14.8-2.3-30.6,3.2-41.9,14.4c-4.1,4-7.7,9.2-8.2,15.4c5.6-8.1,13.3-14.8,21.4-19.3
		C161.2,340.4,171.3,337.1,180.9,334.8z"/>
	<path class="st1" d="M108.2,355.4c-4.7-19.2-16.9-35.4-31.8-45.8c-7.7-5.3-16.2-9.2-25-11.5c9.1,5.6,17.8,11.7,26.1,18.6
		C89.8,327.2,100.7,340.1,108.2,355.4z"/>
</g>
<g>
	<path class="st2" d="M115.9,536.4l-12.9-0.2c-10.8-22.1-25.1-55.8-28.5-84.9c-1.9-15.9-12.9-23.1-16.8-26.2
		c-5.7-4.5-19.9-10.3-35.9-22.2c-8.3-6.2-19.6-15.7-30.4-24.4c-16.7-13.5-24.5-15.3-32.7-6.4c-2.9,3.2-7.5,13.8,5.1,25
		c2.8,2.5,9.7,8,14.4,12c4.3,3.7,11.4,10.3,20.1,19.2c7,7.1,9.9,14.6,9.9,14.6s-8.5-6.2-11.5-8.4c-9.3-6.9-21.7-15.7-31.8-25.1
		c-10.2-9.4-16.7-18-17.5-27.2c-0.4-14.2,8.3-19.3,13.3-22c0,0-31.1-54.2-33.6-57.5c-5.1-6.6-13.4-12.8-18.8-12.3
		c-0.1,0-4.4-0.9-9.2,3.7c-2.6,2.5-3.7,8.1,1.3,18.4c0,0,19.7,44.3,34.4,104.9c0,0,1.8,6.9,7.2,11.4C-29.8,450-2.4,476.2,0.4,479
		c13.6,14,28.4,31.1,33.7,56.1l-11.4-0.2l2.4,39l92.2,1.2L115.9,536.4z M49.8,559.3c-2.4,2.5-6.5,2.6-9,0.2c-2.5-2.4-2.6-6.5-0.2-9
		c2.4-2.5,6.5-2.6,9-0.2C52.1,552.7,52.2,556.8,49.8,559.3z"/>
	<path class="st2" d="M306.3,428.8c5.4-4.5,7.2-11.4,7.2-11.4c14.8-60.6,34.4-104.9,34.4-104.9c4.9-10.3,3.9-15.9,1.2-18.4
		c-4.8-4.6-9.1-3.7-9.2-3.7c-5.4-0.5-13.8,5.7-18.8,12.3c-2.5,3.3-33.6,57.5-33.6,57.5c4.9,2.7,13.7,7.8,13.3,22
		c-0.8,9.2-7.3,17.8-17.5,27.2c-10.2,9.4-22.5,18.2-31.8,25.1c-3,2.3-11.5,8.4-11.5,8.4s3-7.5,9.9-14.6c8.7-8.9,15.8-15.6,20.1-19.2
		c4.7-4,11.6-9.6,14.4-12c12.7-11.2,8.1-21.9,5.2-25c-8.3-9-16-7.1-32.7,6.4c-10.7,8.7-22,18.2-30.4,24.4
		c-16.1,11.9-30.2,17.7-36,22.2c-3.9,3.1-15,10.3-16.8,26.2c-3.4,29.1-17.7,62.8-28.5,84.9l-12.9,0.2l-1,38.7l92.2-1.2l2.4-39
		l-11.4,0.2c5.3-25.1,20-42.1,33.7-56.1C250.6,476.2,278,450,306.3,428.8z M207.2,559.5c-2.6,2.5-6.6,2.4-9-0.2
		c-2.4-2.6-2.3-6.6,0.2-9s6.6-2.3,9,0.2C209.8,553,209.8,557.1,207.2,559.5z"/>
</g>
</svg>
